<svg width="26" height="24" viewBox="0 0 26 24" fill="none" xmlns="http://www.w3.org/2000/svg">
<path d="M6.42008 13.9809L5.59733 16.7233L2.5902 16.78C1.69151 15.2918 1.18176 13.589 1.18176 11.7795C1.18176 10.0297 1.65837 8.37967 2.50318 6.92676H2.50383L5.18102 7.36499L6.35379 9.74099C6.10833 10.3799 5.97454 11.0658 5.97454 11.7795C5.97464 12.5541 6.13178 13.2962 6.42008 13.9809Z" fill="#FBBB00"/>
<path d="M24.6116 9.80811C24.7474 10.4464 24.8181 11.1056 24.8181 11.7793C24.8181 12.5348 24.7292 13.2717 24.5597 13.9825C23.9844 16.4013 22.4811 18.5135 20.3987 20.0081L20.398 20.0076L17.026 19.8539L16.5487 17.1939C17.9305 16.4703 19.0104 15.338 19.5793 13.9825H13.2598V9.80811H19.6715H24.6116Z" fill="#518EF8"/>
<path d="M20.398 20.0077L20.3986 20.0083C18.3733 21.4618 15.8006 22.3315 12.9999 22.3315C8.4993 22.3315 4.58633 20.0854 2.59021 16.7801L6.42008 13.981C7.41812 16.3592 9.98761 18.0522 12.9999 18.0522C14.2947 18.0522 15.5078 17.7396 16.5486 17.1941L20.398 20.0077Z" fill="#28B446"/>
<path d="M20.5434 3.6568L16.7149 6.45537C15.6376 5.85416 14.3642 5.50685 12.9999 5.50685C9.91941 5.50685 7.30186 7.27747 6.35382 9.74098L2.50382 6.92675H2.50317C4.47007 3.54085 8.43239 1.22754 12.9999 1.22754C15.8675 1.22754 18.4967 2.13954 20.5434 3.6568Z" fill="#F14336"/>
</svg>
